{
	"patcher" : 	{
		"fileversion" : 1,
		"appversion" : 		{
			"major" : 6,
			"minor" : 1,
			"revision" : 3,
			"architecture" : "x64"
		}
,
		"rect" : [ 8.0, 342.0, 1180.0, 968.0 ],
		"bglocked" : 0,
		"openinpresentation" : 0,
		"default_fontsize" : 12.0,
		"default_fontface" : 0,
		"default_fontname" : "PT Sans",
		"gridonopen" : 0,
		"gridsize" : [ 6.0, 6.0 ],
		"gridsnaponopen" : 0,
		"statusbarvisible" : 0,
		"toolbarvisible" : 1,
		"boxanimatetime" : 200,
		"imprint" : 0,
		"enablehscroll" : 1,
		"enablevscroll" : 1,
		"devicewidth" : 0.0,
		"description" : "",
		"digest" : "",
		"tags" : "",
		"showontab" : 1,
		"boxes" : [ 			{
				"box" : 				{
					"fontname" : "PT Sans",
					"fontsize" : 12.0,
					"id" : "obj-27",
					"maxclass" : "message",
					"numinlets" : 2,
					"numoutlets" : 1,
					"outlettype" : [ "" ],
					"patching_rect" : [ 360.0, 516.0, 32.5, 20.0 ],
					"text" : "edit"
				}

			}
, 			{
				"box" : 				{
					"fontname" : "PT Sans",
					"fontsize" : 12.0,
					"id" : "obj-12",
					"maxclass" : "newobj",
					"numinlets" : 1,
					"numoutlets" : 2,
					"outlettype" : [ "", "" ],
					"patching_rect" : [ 372.0, 594.0, 132.0, 22.0 ],
					"text" : "jupe.ly.material evening"
				}

			}
, 			{
				"box" : 				{
					"fontname" : "PT Sans",
					"fontsize" : 12.0,
					"id" : "obj-20",
					"maxclass" : "message",
					"numinlets" : 2,
					"numoutlets" : 1,
					"outlettype" : [ "" ],
					"patching_rect" : [ 174.0, 192.0, 33.0, 20.0 ],
					"text" : "load"
				}

			}
, 			{
				"box" : 				{
					"fontname" : "PT Sans",
					"fontsize" : 12.0,
					"id" : "obj-25",
					"maxclass" : "message",
					"numinlets" : 2,
					"numoutlets" : 1,
					"outlettype" : [ "" ],
					"patching_rect" : [ 294.0, 192.0, 33.0, 20.0 ],
					"text" : "save"
				}

			}
, 			{
				"box" : 				{
					"fontname" : "PT Sans",
					"fontsize" : 12.0,
					"id" : "obj-21",
					"maxclass" : "message",
					"numinlets" : 2,
					"numoutlets" : 1,
					"outlettype" : [ "" ],
					"patching_rect" : [ 246.0, 192.0, 32.5, 20.0 ],
					"text" : "edit"
				}

			}
, 			{
				"box" : 				{
					"fontname" : "PT Sans",
					"fontsize" : 12.0,
					"id" : "obj-16",
					"maxclass" : "message",
					"numinlets" : 2,
					"numoutlets" : 1,
					"outlettype" : [ "" ],
					"patching_rect" : [ 42.0, 192.0, 92.0, 20.0 ],
					"text" : "name afternoon"
				}

			}
, 			{
				"box" : 				{
					"fontname" : "PT Sans",
					"fontsize" : 12.0,
					"id" : "obj-3",
					"maxclass" : "newobj",
					"numinlets" : 1,
					"numoutlets" : 2,
					"outlettype" : [ "", "" ],
					"patching_rect" : [ 54.0, 276.0, 142.0, 22.0 ],
					"text" : "jupe.ly.material afternoon"
				}

			}
, 			{
				"box" : 				{
					"fontname" : "PT Sans",
					"fontsize" : 12.0,
					"id" : "obj-30",
					"maxclass" : "message",
					"numinlets" : 2,
					"numoutlets" : 1,
					"outlettype" : [ "" ],
					"patching_rect" : [ 912.0, 498.0, 204.0, 20.0 ],
					"text" : "contains ly boohaha containsboohoho"
				}

			}
, 			{
				"box" : 				{
					"fontname" : "PT Sans",
					"fontsize" : 12.0,
					"id" : "obj-28",
					"maxclass" : "message",
					"numinlets" : 2,
					"numoutlets" : 1,
					"outlettype" : [ "" ],
					"patching_rect" : [ 546.0, 438.0, 44.0, 20.0 ],
					"text" : "restart"
				}

			}
, 			{
				"box" : 				{
					"fontname" : "PT Sans",
					"fontsize" : 12.0,
					"id" : "obj-26",
					"maxclass" : "message",
					"numinlets" : 2,
					"numoutlets" : 1,
					"outlettype" : [ "" ],
					"patching_rect" : [ 912.0, 426.0, 46.0, 20.0 ],
					"text" : "save ly"
				}

			}
, 			{
				"box" : 				{
					"fontname" : "PT Sans",
					"fontsize" : 12.0,
					"id" : "obj-24",
					"maxclass" : "message",
					"numinlets" : 2,
					"numoutlets" : 1,
					"outlettype" : [ "" ],
					"patching_rect" : [ 882.0, 360.0, 242.0, 20.0 ],
					"text" : "save_value ly material::morning::music ly true"
				}

			}
, 			{
				"box" : 				{
					"fontname" : "PT Sans",
					"fontsize" : 12.0,
					"id" : "obj-22",
					"maxclass" : "newobj",
					"numinlets" : 2,
					"numoutlets" : 2,
					"outlettype" : [ "", "" ],
					"patching_rect" : [ 864.0, 222.0, 61.0, 22.0 ],
					"text" : "route text"
				}

			}
, 			{
				"box" : 				{
					"fontname" : "PT Sans",
					"fontsize" : 12.0,
					"frgb" : 0.0,
					"id" : "obj-19",
					"linecount" : 3,
					"maxclass" : "textedit",
					"numinlets" : 1,
					"numoutlets" : 4,
					"outlettype" : [ "", "int", "", "" ],
					"outputmode" : 1,
					"parameter_enable" : 0,
					"patching_rect" : [ 882.0, 114.0, 174.0, 78.0 ],
					"text" : "\\relative c'\nc''4 c c c | c c c c^\"all done!\"\nc1 c1"
				}

			}
, 			{
				"box" : 				{
					"fontname" : "PT Sans",
					"fontsize" : 12.0,
					"id" : "obj-18",
					"maxclass" : "message",
					"numinlets" : 2,
					"numoutlets" : 1,
					"outlettype" : [ "" ],
					"patching_rect" : [ 894.0, 270.0, 183.0, 20.0 ],
					"text" : "set ly material::morning::music $1"
				}

			}
, 			{
				"box" : 				{
					"fontname" : "PT Sans",
					"fontsize" : 12.0,
					"id" : "obj-17",
					"maxclass" : "message",
					"numinlets" : 2,
					"numoutlets" : 1,
					"outlettype" : [ "" ],
					"patching_rect" : [ 798.0, 72.0, 209.0, 20.0 ],
					"text" : "set ly material, set ly material::morning"
				}

			}
, 			{
				"box" : 				{
					"fontname" : "PT Sans",
					"fontsize" : 12.0,
					"id" : "obj-15",
					"maxclass" : "message",
					"numinlets" : 2,
					"numoutlets" : 1,
					"outlettype" : [ "" ],
					"patching_rect" : [ 630.0, 78.0, 92.0, 20.0 ],
					"text" : "load_orcreate ly"
				}

			}
, 			{
				"box" : 				{
					"fontname" : "PT Sans",
					"fontsize" : 12.0,
					"id" : "obj-13",
					"maxclass" : "message",
					"numinlets" : 2,
					"numoutlets" : 1,
					"outlettype" : [ "" ],
					"patching_rect" : [ 504.0, 138.0, 86.0, 20.0 ],
					"text" : "get work name"
				}

			}
, 			{
				"box" : 				{
					"fontname" : "PT Sans",
					"fontsize" : 12.0,
					"id" : "obj-9",
					"maxclass" : "newobj",
					"numinlets" : 1,
					"numoutlets" : 0,
					"patching_rect" : [ 696.0, 678.0, 35.0, 22.0 ],
					"text" : "print"
				}

			}
, 			{
				"box" : 				{
					"fontname" : "PT Sans",
					"fontsize" : 12.0,
					"id" : "obj-5",
					"maxclass" : "newobj",
					"numinlets" : 1,
					"numoutlets" : 2,
					"outlettype" : [ "", "" ],
					"patching_rect" : [ 744.0, 558.0, 53.0, 22.0 ],
					"text" : "jupe.eco"
				}

			}
, 			{
				"box" : 				{
					"id" : "obj-14",
					"maxclass" : "button",
					"numinlets" : 1,
					"numoutlets" : 1,
					"outlettype" : [ "bang" ],
					"patching_rect" : [ 192.0, 438.0, 20.0, 20.0 ]
				}

			}
, 			{
				"box" : 				{
					"fontname" : "PT Sans",
					"fontsize" : 12.0,
					"id" : "obj-7",
					"maxclass" : "message",
					"numinlets" : 2,
					"numoutlets" : 1,
					"outlettype" : [ "" ],
					"patching_rect" : [ 462.0, 780.0, 44.0, 20.0 ],
					"text" : "render"
				}

			}
, 			{
				"box" : 				{
					"id" : "obj-4",
					"maxclass" : "bpatcher",
					"name" : "jupe.ly.gizmo.shard.maxpat",
					"numinlets" : 1,
					"numoutlets" : 1,
					"outlettype" : [ "" ],
					"patching_rect" : [ 84.0, 564.0, 198.0, 312.0 ]
				}

			}
, 			{
				"box" : 				{
					"fontname" : "PT Sans",
					"fontsize" : 12.0,
					"id" : "obj-11",
					"maxclass" : "newobj",
					"numinlets" : 1,
					"numoutlets" : 2,
					"outlettype" : [ "", "" ],
					"patching_rect" : [ 462.0, 384.0, 62.0, 22.0 ],
					"text" : "mxj boom"
				}

			}
, 			{
				"box" : 				{
					"id" : "obj-10",
					"maxclass" : "button",
					"numinlets" : 1,
					"numoutlets" : 1,
					"outlettype" : [ "bang" ],
					"patching_rect" : [ 426.0, 312.0, 20.0, 20.0 ]
				}

			}
, 			{
				"box" : 				{
					"id" : "obj-8",
					"maxclass" : "button",
					"numinlets" : 1,
					"numoutlets" : 1,
					"outlettype" : [ "bang" ],
					"patching_rect" : [ 1038.0, 780.0, 20.0, 20.0 ]
				}

			}
, 			{
				"box" : 				{
					"fontname" : "PT Sans",
					"fontsize" : 12.0,
					"id" : "obj-6",
					"maxclass" : "newobj",
					"numinlets" : 1,
					"numoutlets" : 2,
					"outlettype" : [ "", "" ],
					"patching_rect" : [ 894.0, 882.0, 102.0, 22.0 ],
					"text" : "mxj quickie boom"
				}

			}
, 			{
				"box" : 				{
					"fontname" : "PT Sans",
					"fontsize" : 12.0,
					"id" : "obj-2",
					"maxclass" : "newobj",
					"numinlets" : 0,
					"numoutlets" : 0,
					"patching_rect" : [ 270.0, 66.0, 79.0, 22.0 ],
					"text" : "jupe.eco.view"
				}

			}
 ],
		"lines" : [ 			{
				"patchline" : 				{
					"destination" : [ "obj-11", 0 ],
					"disabled" : 0,
					"hidden" : 0,
					"source" : [ "obj-10", 0 ]
				}

			}
, 			{
				"patchline" : 				{
					"destination" : [ "obj-5", 0 ],
					"disabled" : 0,
					"hidden" : 0,
					"source" : [ "obj-13", 0 ]
				}

			}
, 			{
				"patchline" : 				{
					"destination" : [ "obj-4", 0 ],
					"disabled" : 0,
					"hidden" : 0,
					"source" : [ "obj-14", 0 ]
				}

			}
, 			{
				"patchline" : 				{
					"destination" : [ "obj-5", 0 ],
					"disabled" : 0,
					"hidden" : 0,
					"source" : [ "obj-15", 0 ]
				}

			}
, 			{
				"patchline" : 				{
					"destination" : [ "obj-3", 0 ],
					"disabled" : 0,
					"hidden" : 0,
					"source" : [ "obj-16", 0 ]
				}

			}
, 			{
				"patchline" : 				{
					"destination" : [ "obj-5", 0 ],
					"disabled" : 0,
					"hidden" : 0,
					"source" : [ "obj-17", 0 ]
				}

			}
, 			{
				"patchline" : 				{
					"destination" : [ "obj-5", 0 ],
					"disabled" : 0,
					"hidden" : 0,
					"source" : [ "obj-18", 0 ]
				}

			}
, 			{
				"patchline" : 				{
					"destination" : [ "obj-22", 0 ],
					"disabled" : 0,
					"hidden" : 0,
					"source" : [ "obj-19", 0 ]
				}

			}
, 			{
				"patchline" : 				{
					"destination" : [ "obj-3", 0 ],
					"disabled" : 0,
					"hidden" : 0,
					"source" : [ "obj-20", 0 ]
				}

			}
, 			{
				"patchline" : 				{
					"destination" : [ "obj-3", 0 ],
					"disabled" : 0,
					"hidden" : 0,
					"source" : [ "obj-21", 0 ]
				}

			}
, 			{
				"patchline" : 				{
					"destination" : [ "obj-18", 0 ],
					"disabled" : 0,
					"hidden" : 0,
					"source" : [ "obj-22", 0 ]
				}

			}
, 			{
				"patchline" : 				{
					"destination" : [ "obj-5", 0 ],
					"disabled" : 0,
					"hidden" : 0,
					"source" : [ "obj-24", 0 ]
				}

			}
, 			{
				"patchline" : 				{
					"destination" : [ "obj-3", 0 ],
					"disabled" : 0,
					"hidden" : 0,
					"source" : [ "obj-25", 0 ]
				}

			}
, 			{
				"patchline" : 				{
					"destination" : [ "obj-5", 0 ],
					"disabled" : 0,
					"hidden" : 0,
					"source" : [ "obj-26", 0 ]
				}

			}
, 			{
				"patchline" : 				{
					"destination" : [ "obj-12", 0 ],
					"disabled" : 0,
					"hidden" : 0,
					"source" : [ "obj-27", 0 ]
				}

			}
, 			{
				"patchline" : 				{
					"destination" : [ "obj-5", 0 ],
					"disabled" : 0,
					"hidden" : 0,
					"source" : [ "obj-28", 0 ]
				}

			}
, 			{
				"patchline" : 				{
					"destination" : [ "obj-5", 0 ],
					"disabled" : 0,
					"hidden" : 0,
					"source" : [ "obj-30", 0 ]
				}

			}
, 			{
				"patchline" : 				{
					"destination" : [ "obj-9", 0 ],
					"disabled" : 0,
					"hidden" : 0,
					"source" : [ "obj-5", 1 ]
				}

			}
, 			{
				"patchline" : 				{
					"destination" : [ "obj-9", 0 ],
					"disabled" : 0,
					"hidden" : 0,
					"source" : [ "obj-5", 0 ]
				}

			}
, 			{
				"patchline" : 				{
					"destination" : [ "obj-6", 0 ],
					"disabled" : 0,
					"hidden" : 0,
					"source" : [ "obj-8", 0 ]
				}

			}
 ],
		"dependency_cache" : [ 			{
				"name" : "jupe.eco.view.maxpat",
				"bootpath" : "/Ran/Code/Jupe/MaxPackages/jupe/patchers",
				"patcherrelativepath" : ".",
				"type" : "JSON",
				"implicit" : 1
			}
, 			{
				"name" : "jupe.maxpat",
				"bootpath" : "/Ran/Code/Jupe/patchers",
				"patcherrelativepath" : "../../../patchers",
				"type" : "JSON",
				"implicit" : 1
			}
, 			{
				"name" : "jupe.eco.js",
				"bootpath" : "/Ran/Code/Jupe/MaxPackages/jupe/javascript",
				"patcherrelativepath" : "../javascript",
				"type" : "TEXT",
				"implicit" : 1
			}
, 			{
				"name" : "jupe.gizmo.value.maxpat",
				"bootpath" : "/Ran/Code/Jupe/MaxPackages/jupe/patchers",
				"patcherrelativepath" : ".",
				"type" : "JSON",
				"implicit" : 1
			}
, 			{
				"name" : "jupe.ly.gizmo.shard.maxpat",
				"bootpath" : "/Ran/Code/Jupe/MaxPackages/jupe/patchers",
				"patcherrelativepath" : ".",
				"type" : "JSON",
				"implicit" : 1
			}
, 			{
				"name" : "jupe.ly.gizmo.shard.js",
				"bootpath" : "/Ran/Code/Jupe/MaxPackages/jupe/javascript",
				"patcherrelativepath" : "../javascript",
				"type" : "TEXT",
				"implicit" : 1
			}
, 			{
				"name" : "lylab3.png",
				"bootpath" : "/Ran/Code/Treasure/Jupe/0.6/jupe.ly/media",
				"patcherrelativepath" : "../../../../Treasure/Jupe/0.6/jupe.ly/media",
				"type" : "PNG ",
				"implicit" : 1
			}
, 			{
				"name" : "jupe.work.maxpat",
				"bootpath" : "/Ran/Code/Jupe/MaxPackages/jupe/patchers",
				"patcherrelativepath" : ".",
				"type" : "JSON",
				"implicit" : 1
			}
, 			{
				"name" : "jupe.work.js",
				"bootpath" : "/Ran/Code/Jupe/MaxPackages/jupe/javascript",
				"patcherrelativepath" : "../javascript",
				"type" : "TEXT",
				"implicit" : 1
			}
, 			{
				"name" : "jupe.eco.maxpat",
				"bootpath" : "/Ran/Code/Jupe/MaxPackages/jupe/patchers",
				"patcherrelativepath" : ".",
				"type" : "JSON",
				"implicit" : 1
			}
, 			{
				"name" : "jupe.ly.material.maxpat",
				"bootpath" : "/Ran/Code/Jupe/MaxPackages/jupe/patchers",
				"patcherrelativepath" : ".",
				"type" : "JSON",
				"implicit" : 1
			}
, 			{
				"name" : "jupe.query.maxpat",
				"bootpath" : "/Ran/Code/Jupe/MaxPackages/jupe/patchers",
				"patcherrelativepath" : ".",
				"type" : "JSON",
				"implicit" : 1
			}
 ]
	}

}
